# xmcd
#
# Track frame offsets: 
#        150
#        15117
#        26357
#        40605
#        48892
#        66852
#        91892
#        104460
#        114085
#        129917
#        146157
#        165387
#        170990
#
# Disc length: 2354 seconds
#
# Revision: 23
# Processed by: cddbd v1.5.2PL0 Copyright (c) Steve Scherf et al.
# Submitted via: ExactAudioCopy v1.3
#
DISCID=9809300d
DTITLE=Pink Floyd - The Wall [CD1]
DYEAR=1979
DGENRE=Progressive Rock
TTITLE0=In The Flesh?
TTITLE1=The Thin Ice
TTITLE2=Another Brick In The Wall, Part 1
TTITLE3=The Happiest Days Of Our Lives
TTITLE4=Another Brick In The Wall, Part 2
TTITLE5=Mother
TTITLE6=Goodbye Blue Sky
TTITLE7=Empty Spaces
TTITLE8=Young Lust
TTITLE9=One Of My Turns
TTITLE10=Don't Leave Me Now
TTITLE11=Another Brick In The Wall, Part 3
TTITLE12=Goodbye Cruel World
EXTD=Pink Floyd - The Wall (2 CD]\nYear: 1979\nLabel: EMI\nDigital Rem
EXTD=asters 1994\n\nAll Tracks written by Roger Waters except:\n\nYoun
EXTD=g Lust (Waters, Gilmour]\nComfortably Numb (Gilmour, Waters]\nRun
EXTD=Like Hell (Gilmour, Waters]\nThe Trial (Waters, Ezrin]\n\nOrigin
EXTD=al recording Pink Floyd Music Ltd. (C) 1979\nDigital Remasters (P
EXTD=) 1994 Pink Floyd Music Ltd. - \nEMI Records Ltd.\n(C) 1994 Pink
EXTD=Floyd Music Ltd.
EXTT0=Roger Waters
EXTT1=Roger Waters
EXTT2=Roger Waters
EXTT3=Roger Waters
EXTT4=Roger Waters
EXTT5=Roger Waters
EXTT6=Roger Waters
EXTT7=Roger Waters
EXTT8=Waters, Gilmour
EXTT9=Roger Waters
EXTT10=Roger Waters
EXTT11=Roger Waters
EXTT12=Roger Waters
PLAYORDER=
